<svg width="80" height="80" viewBox="0 0 80 80" fill="none" xmlns="http://www.w3.org/2000/svg">
<path d="M20.4341 40.0769C20.4341 50.9085 29.2454 59.7197 40.077 59.7197C50.9086 59.7197 59.7198 50.9085 59.7198 40.0769C59.7198 29.2453 50.9086 20.4341 40.077 20.4341C29.2454 20.4341 20.4341 29.2453 20.4341 40.0769ZM40.077 28.2802C46.5815 28.2802 51.8737 33.5724 51.8737 40.0769C51.8737 46.5814 46.5815 51.8736 40.077 51.8736C33.5725 51.8736 28.2803 46.5814 28.2803 40.0769C28.2803 33.5724 33.5725 28.2802 40.077 28.2802ZM36.1461 67.5384H43.9922V79.3077H36.1461V67.5384ZM36.1461 0.84613H43.9922V12.6154H36.1461V0.84613ZM0.838379 36.1538H12.6076V44H0.838379V36.1538ZM67.5307 36.1538H79.2999V44H67.5307V36.1538ZM9.55153 65.0394L17.8685 56.7147L23.4196 62.2619L15.1027 70.5867L9.55153 65.0394ZM56.7108 17.888L65.0356 9.56321L70.5828 15.1104L62.2581 23.4352L56.7108 17.888ZM17.8802 23.4391L9.55546 15.1144L15.1066 9.56713L23.4235 17.8919L17.8802 23.4391ZM70.5828 65.0434L65.0356 70.5906L56.7108 62.2658L62.2581 56.7186L70.5828 65.0434Z" fill="#F39C12"/>
</svg>
